<!DOCTYPE svg PUBLIC "-//W3C//DTD SVG 1.1//EN" "http://www.w3.org/Graphics/SVG/1.1/DTD/svg11.dtd">
<svg version="1.1" id="Layer_1" xmlns="http://www.w3.org/2000/svg" xmlns:xlink="http://www.w3.org/1999/xlink" x="0px" y="0px"
     viewBox="0 0 290 40" enable-background="new 0 0 290 40" xml:space="preserve">
    <style>
        <!-- Currently there are no available brand guidelines from scala for dark mode and the text does not render clearly -->
        @media (prefers-color-scheme: dark){
            #Layer_1 {
                background: white;
            }
        }
    </style>
	<g id="scala-text" fill="#31383B">
		<path d="M71.243,26.74c1.17,0.72,2.88,1.32,4.68,1.32c2.67,0,4.23-1.41,4.23-3.45c0-1.89-1.08-2.97-3.81-4.02
			c-3.3-1.17-5.34-2.88-5.34-5.73c0-3.15,2.61-5.49,6.54-5.49c2.07,0,3.57,0.48,4.47,0.99l-0.72,2.13c-0.66-0.36-2.01-0.96-3.84-0.96
			c-2.76,0-3.81,1.65-3.81,3.03c0,1.89,1.23,2.82,4.02,3.9c3.42,1.32,5.16,2.969,5.16,5.94c0,3.119-2.31,5.819-7.08,5.819
			c-1.95,0-4.08-0.569-5.16-1.29L71.243,26.74z"/>
        <path d="M102.022,29.26c-0.96,0.48-2.88,0.96-5.34,0.96c-5.7,0-9.989-3.6-9.989-10.229
			c0-6.33,4.29-10.62,10.56-10.62c2.52,0,4.11,0.54,4.8,0.9l-0.63,2.13c-0.99-0.479-2.4-0.84-4.08-0.84c-4.74,0-7.89,3.03-7.89,8.34
			c0,4.949,2.85,8.129,7.77,8.129c1.59,0,3.21-0.329,4.26-0.84L102.022,29.26z"/>
        <path d="M110.183,23.561l-2.1,6.359h-2.7l6.87-20.219h3.15l6.9,20.219h-2.79l-2.16-6.359H110.183z M116.813,21.521
			l-1.98-5.82c-0.45-1.32-0.75-2.52-1.05-3.69h-0.06c-0.3,1.2-0.63,2.43-1.02,3.66l-1.98,5.85H116.813z"/>
        <path d="M126.773,9.701h2.61v18.03h8.64v2.189h-11.25V9.701z"/>
        <path d="M145.703,23.561l-2.1,6.359h-2.7l6.87-20.219h3.149l6.9,20.219h-2.79l-2.16-6.359H145.703z M152.332,21.521
			l-1.979-5.82c-0.45-1.32-0.75-2.52-1.05-3.69h-0.061c-0.3,1.2-0.63,2.43-1.02,3.66l-1.98,5.85H152.332z"/>
        <path d="M164.902,9.701v8.459h9.78V9.701h2.64V29.92h-2.64V20.44h-9.78v9.479h-2.609V9.701H164.902z"/>
        <path d="M200.633,19.601c0,6.96-4.23,10.649-9.391,10.649c-5.34,0-9.089-4.141-9.089-10.26
			c0-6.419,3.989-10.62,9.39-10.62C197.063,9.371,200.633,13.601,200.633,19.601z M184.943,19.93c0,4.32,2.34,8.19,6.449,8.19
			c4.141,0,6.48-3.81,6.48-8.4c0-4.02-2.101-8.22-6.45-8.22C187.104,11.5,184.943,15.491,184.943,19.93z"/>
        <path d="M205.163,26.74c1.17,0.72,2.88,1.32,4.68,1.32c2.67,0,4.229-1.41,4.229-3.45c0-1.89-1.08-2.97-3.81-4.02
			c-3.3-1.17-5.34-2.88-5.34-5.73c0-3.15,2.61-5.49,6.54-5.49c2.07,0,3.57,0.48,4.47,0.99l-0.72,2.13c-0.66-0.36-2.01-0.96-3.84-0.96
			c-2.76,0-3.811,1.65-3.811,3.03c0,1.89,1.23,2.82,4.021,3.9c3.42,1.32,5.159,2.969,5.159,5.94c0,3.119-2.31,5.819-7.079,5.819
			c-1.95,0-4.08-0.569-5.16-1.29L205.163,26.74z"/>
        <path d="M225.653,11.921h-6.149v-2.22h14.969v2.22h-6.18V29.92h-2.64V11.921z"/>
        <path d="M240.833,9.701V29.92h-2.61V9.701H240.833z"/>
        <path d="M246.893,29.92V9.701h2.851l6.479,10.229c1.5,2.371,2.67,4.5,3.63,6.57l0.06-0.029
			c-0.239-2.701-0.299-5.16-0.299-8.311V9.701h2.459V29.92h-2.64l-6.42-10.26c-1.409-2.25-2.76-4.56-3.78-6.75l-0.09,0.03
			c0.15,2.55,0.211,4.98,0.211,8.34v8.64H246.893z"/>
        <path d="M283.523,29.02c-1.17,0.42-3.48,1.11-6.211,1.11c-3.06,0-5.579-0.78-7.559-2.67
			c-1.74-1.68-2.82-4.38-2.82-7.53c0.029-6.03,4.17-10.439,10.949-10.439c2.34,0,4.17,0.51,5.04,0.93l-0.63,2.13
			c-1.08-0.48-2.43-0.87-4.47-0.87c-4.92,0-8.13,3.06-8.13,8.13c0,5.129,3.09,8.16,7.8,8.16c1.71,0,2.88-0.24,3.479-0.541V21.4
			h-4.109v-2.1h6.66V29.02z"/>
	</g>
    <linearGradient id="SVGID_1_" gradientUnits="userSpaceOnUse" x1="11.5098" y1="2.1372" x2="54.0724" y2="37.8515">
		<stop  offset="0" style="stop-color:#B3CD35"/>
        <stop  offset="1" style="stop-color:#5AA144"/>
	</linearGradient>
    <path fill="url(#SVGID_1_)" d="M53.049,13.557c-1.01-0.68-1.186-1.49-0.33-2.346l6.355-6.357C60.748,3.013,59.911,0,57.065,0H19.948
	C12.083,0,5.684,6.398,5.684,14.263c0,5.151,2.678,9.67,6.862,12.18c1.004,0.67,1.171,1.506,0.335,2.344l-6.36,6.359
	C4.848,36.987,5.684,40,8.53,40h37.154C53.551,40,59.9,33.539,59.9,25.674C59.911,20.585,57.233,16.067,53.049,13.557z
	 M45.637,34.24L18.404,34.31c-1.506,0-2.008-1.004-1.004-2.176l2.845-2.845c0.669-0.502,1.171-0.838,2.008-0.838l23.383,0.072
	c1.573,0,2.848-1.275,2.848-2.85c0-1.572-1.275-2.848-2.848-2.848H19.948c-4.724,0-8.566-3.841-8.566-8.563
	c0-4.723,3.842-8.566,8.566-8.566L47.191,5.69c1.506,0,2.008,1.004,1.004,2.008l-2.845,2.845c-0.67,0.669-1.171,0.837-2.176,0.837
	l-23.227,0.033c-1.574,0-2.849,1.275-2.849,2.849c0,1.573,1.275,2.848,2.849,2.848h25.689c4.722,0,8.566,3.841,8.566,8.563
	C54.203,30.397,50.359,34.24,45.637,34.24z"/>
</svg>